<?xml version="1.0" standalone="no"?>
<!DOCTYPE svg PUBLIC "-//W3C//DTD SVG 20010904//EN"
 "http://www.w3.org/TR/2001/REC-SVG-20010904/DTD/svg10.dtd">
<svg version="1.0" xmlns="http://www.w3.org/2000/svg"
 width="256.000000pt" height="256.000000pt" viewBox="0 0 256.000000 256.000000"
 preserveAspectRatio="xMidYMid meet">
<metadata>
Created by potrace 1.11, written by Peter Selinger 2001-2013
</metadata>
<g transform="translate(0.000000,256.000000) scale(0.100000,-0.100000)"
fill="#000000" stroke="none">
<path d="M0 1280 l0 -1280 1280 0 1280 0 0 1280 0 1280 -1280 0 -1280 0 0
-1280z m1094 1044 c20 -20 20 -58 0 -78 -33 -34 -104 -8 -104 37 0 49 70 76
104 41z m130 -132 c2 -4 7 -58 11 -119 7 -108 7 -113 -12 -113 -17 0 -21 9
-26 68 -4 37 -7 83 -7 102 0 28 -7 41 -36 65 -25 21 -33 35 -29 47 6 16 12 14
50 -12 24 -17 46 -34 49 -38z m160 -292 c126 -32 231 -102 272 -182 74 -144
-42 -312 -256 -371 -30 -9 -76 -18 -102 -22 -46 -6 -48 -5 -48 19 0 29 -10 37
-63 51 -21 6 -39 14 -40 20 -1 5 14 20 33 33 32 22 42 24 112 18 70 -5 79 -3
88 14 14 27 -3 58 -37 66 -14 4 -48 1 -75 -5 -28 -8 -68 -10 -96 -6 -57 8 -94
-15 -112 -70 -13 -40 -10 -39 -75 -20 -33 11 -67 14 -101 9 l-52 -6 -30 44
c-17 24 -35 62 -41 85 -36 134 95 278 296 327 88 22 235 20 327 -4z m-589 -60
c4 -6 -11 -30 -33 -54 -22 -24 -43 -54 -47 -66 -7 -23 -8 -23 -21 -5 -23 31
-17 79 12 109 27 27 77 35 89 16z m894 -11 c31 -29 43 -64 31 -94 -5 -14 -11
-25 -13 -25 -2 0 -18 23 -36 50 -18 28 -41 55 -52 61 -11 5 -17 14 -14 20 11
16 61 10 84 -12z m-328 -316 c13 -15 11 -16 -13 -11 -19 3 -28 1 -28 -7 0 -8
-8 -11 -20 -8 -11 3 -20 10 -20 17 0 6 -4 5 -9 -3 -5 -8 -18 -12 -30 -8 -12 3
-21 1 -21 -4 0 -5 -11 -9 -25 -9 -43 0 -31 30 13 31 20 0 46 4 57 9 33 14 82
11 96 -7z m-201 -28 c0 -24 -6 -37 -20 -45 -16 -9 -20 -8 -20 5 0 8 6 15 13
15 8 0 8 3 -2 9 -8 5 -20 7 -28 4 -7 -3 -13 0 -13 6 0 20 24 40 48 41 19 0 22
-5 22 -35z m203 -2 c-7 -2 -19 -2 -25 0 -7 3 -2 5 12 5 14 0 19 -2 13 -5z
m-253 -43 c0 -15 -7 -20 -25 -20 -23 0 -24 2 -15 20 6 11 17 20 25 20 8 0 15
-9 15 -20z m530 -115 c0 -8 -16 -22 -36 -30 -45 -19 -44 -19 -44 4 0 13 6 19
19 18 11 0 17 -5 14 -11 -4 -5 -1 -6 6 -2 7 5 10 14 7 22 -3 9 2 14 14 14 11
0 20 -7 20 -15z m20 -28 c0 -19 -10 -27 -26 -20 -11 4 -12 9 -3 19 15 18 29
18 29 1z m-82 -26 c1 -1 -5 -15 -13 -31 -9 -17 -20 -28 -26 -24 -5 3 -17 0
-25 -7 -8 -6 -17 -9 -21 -5 -3 3 -1 6 5 6 6 0 9 7 6 15 -4 9 0 15 7 15 9 1 8
4 -3 11 -42 24 -8 34 70 20z m32 -10 c0 -6 -4 -13 -10 -16 -5 -3 -10 1 -10 9
0 9 5 16 10 16 6 0 10 -4 10 -9z m-583 -557 c-3 -4 -2 -14 3 -24 6 -12 5 -17
-4 -17 -7 0 -11 10 -10 21 3 27 3 26 11 26 3 0 3 -3 0 -6z m504 -27 c-10 -9
-11 -8 -5 6 3 10 9 15 12 12 3 -3 0 -11 -7 -18z m39 -11 c0 -3 -4 -8 -10 -11
-5 -3 -10 -1 -10 4 0 6 5 11 10 11 6 0 10 -2 10 -4z m-563 -22 c-3 -3 -12 -4
-19 -1 -8 3 -5 6 6 6 11 1 17 -2 13 -5z m543 -18 c0 -3 -4 -8 -10 -11 -5 -3
-10 -1 -10 4 0 6 5 11 10 11 6 0 10 -2 10 -4z m-525 -16 c-3 -5 -12 -10 -18
-10 -7 0 -6 4 3 10 19 12 23 12 15 0z"/>
<path d="M871 1779 c-29 -27 -51 -52 -49 -54 3 -3 31 20 64 50 32 30 55 54 49
54 -5 0 -34 -22 -64 -50z"/>
<path d="M1362 1796 c-32 -30 -45 -36 -66 -30 -20 5 -26 2 -26 -9 0 -9 9 -18
20 -22 11 -3 25 -18 32 -33 12 -24 20 -27 66 -30 47 -3 56 0 82 27 50 49 31
114 -36 127 -27 5 -38 0 -72 -30z"/>
<path d="M970 1807 c-26 -13 -36 -50 -26 -93 8 -30 54 -54 105 -54 33 0 44 5
58 28 10 15 26 33 35 40 26 19 22 32 -11 32 -18 0 -41 11 -61 30 -35 32 -61
37 -100 17z"/>
<path d="M881 1643 c0 -17 3 -22 6 -13 4 8 13 20 22 27 14 11 13 12 -6 13 -19
0 -23 -5 -22 -27z"/>
<path d="M1535 1600 c-27 -10 -58 -19 -67 -19 -10 -1 -18 -6 -18 -11 0 -5 6
-9 13 -7 7 1 11 -6 9 -18 -2 -15 1 -13 13 8 16 28 40 36 48 15 4 -8 6 -7 6 3
1 20 35 31 50 16 8 -8 11 -5 11 11 0 25 1 25 -65 2z"/>
<path d="M1530 1255 c0 -8 7 -15 15 -15 8 0 15 4 15 9 0 5 -7 11 -15 15 -9 3
-15 0 -15 -9z"/>
</g>
</svg>
